<?xml version="1.0" encoding="UTF-8"?>
<!DOCTYPE svg PUBLIC "-//W3C//DTD SVG 1.1//EN" "http://www.w3.org/Graphics/SVG/1.1/DTD/svg11.dtd">
<svg xmlns="http://www.w3.org/2000/svg" xmlns:xlink="http://www.w3.org/1999/xlink" version="1.1" width="117px" height="175px" viewBox="-0.5 -0.5 117 175" style="background-color: rgb(255, 255, 255);"><defs/><g><rect x="-82.03" y="82.02" width="174.31" height="10.25" fill="#fff2cc" stroke="#d6b656" transform="rotate(90,5.12,87.15)" pointer-events="all"/><rect x="15.34" y="72.19" width="128.25" height="4.33" fill="#fff2cc" stroke="#d6b656" transform="rotate(90,79.46,74.35)" pointer-events="all"/><rect x="10.25" y="133.99" width="66.95" height="4.33" fill="#fff2cc" stroke="#d6b656" transform="rotate(180,43.72,136.16)" pointer-events="all"/><rect x="-23.15" y="63.43" width="57.87" height="1" fill="#ffffff" stroke="#000000" transform="rotate(270,5.78,63.93)" pointer-events="all"/><path d="M -23.15 63.93 L 34.72 63.93" fill="none" stroke="#000000" stroke-miterlimit="10" transform="rotate(270,5.78,63.93)" pointer-events="all"/><rect x="-18.02" y="38.54" width="123.62" height="66.93" fill="#ffffff" stroke="#000000" transform="rotate(90,43.79,72)" pointer-events="all"/><rect x="48.77" y="102.91" width="28.15" height="0.5" fill="#ffffff" stroke="#000000" transform="translate(62.85,0)scale(-1,1)translate(-62.85,0)rotate(-90,62.85,117.87)" pointer-events="all"/><path d="M 76.92 103.41 C 76.92 118.96 64.32 131.56 48.77 131.56 L 48.77 103.41" fill="none" stroke="#000000" stroke-miterlimit="10" transform="translate(62.85,0)scale(-1,1)translate(-62.85,0)rotate(-90,62.85,117.87)" pointer-events="all"/><rect x="10.72" y="99.56" width="33.46" height="34.25" fill="none" stroke="#000000" pointer-events="all"/><rect x="13.4" y="102.3" width="28.11" height="28.77" rx="2.68" ry="2.68" fill="none" stroke="#000000" pointer-events="all"/><path d="M 42.18 102.65 C 40.17 104.52 38.48 106.72 37.16 109.15 C 36.77 109.69 36.11 109.94 35.47 109.8 C 34.83 109.66 34.33 109.15 34.19 108.49 C 34.05 107.84 34.29 107.16 34.82 106.76 C 37.2 105.41 39.34 103.67 41.18 101.62 C 41.45 101.34 41.9 101.34 42.18 101.62 C 42.46 101.9 42.46 102.36 42.18 102.65 Z" fill="none" stroke="#000000" stroke-miterlimit="10" pointer-events="all"/><ellipse cx="17.42" cy="126.97" rx="1.6732250000000002" ry="1.712595" fill="#000000" stroke="none" pointer-events="all"/><rect x="13.09" y="62.16" width="21.26" height="5.99" rx="0.8" ry="0.8" fill="none" stroke="#000000" transform="rotate(270,23.72,75.55)" pointer-events="all"/><rect x="16.91" y="68.16" width="13.61" height="6.79" fill="none" stroke="#000000" transform="rotate(270,23.72,75.55)" pointer-events="all"/><ellipse cx="23.72" cy="78.95" rx="8.503919999999999" ry="9.989402985074626" fill="none" stroke="#000000" transform="rotate(270,23.72,75.55)" pointer-events="all"/><ellipse cx="23.72" cy="79.74" rx="5.102352" ry="5.993641791044777" fill="none" stroke="#000000" transform="rotate(270,23.72,75.55)" pointer-events="all"/><ellipse cx="23.72" cy="76.55" rx="2.1259799999999998" ry="2.797032835820896" fill="#000000" stroke="none" transform="rotate(270,23.72,75.55)" pointer-events="all"/><rect x="11.47" y="10.98" width="65" height="27.56" fill="#ffffff" stroke="#000000" pointer-events="all"/><path d="M 15.08 17.87 C 15.08 16.65 15.46 15.48 16.14 14.62 C 16.82 13.76 17.74 13.28 18.69 13.28 L 56.61 13.28 C 62.59 13.28 67.44 17.39 67.44 22.46 L 67.44 27.06 C 67.44 32.13 62.59 36.24 56.61 36.24 L 18.69 36.24 C 16.7 36.24 15.08 34.19 15.08 31.65 Z" fill="none" stroke="#000000" stroke-miterlimit="10" pointer-events="all"/><path d="M 11.47 18.33 L 12.19 18.33 C 12.76 18.32 13.24 21.14 13.28 24.76 C 13.24 28.39 12.76 31.2 12.19 31.19 L 11.47 31.19" fill="none" stroke="#000000" stroke-miterlimit="10" pointer-events="all"/><rect x="12.01" y="23.84" width="6.5" height="1.84" rx="0.92" ry="0.92" fill="#ffffff" stroke="#000000" pointer-events="all"/><ellipse cx="20.5" cy="24.76" rx="1.4444666666666668" ry="1.8372666666666664" fill="#000000" stroke="none" pointer-events="all"/><rect x="45.96" y="50.55" width="43.31" height="19.29" fill="#ffffff" stroke="#000000" transform="rotate(90,67.61,60.19)" pointer-events="all"/><path d="M 78.05 53.11 L 78.05 61.88 C 78.05 65.52 73.37 68.46 67.61 68.46 C 61.85 68.46 57.18 65.52 57.18 61.88 L 57.18 53.11 Z Z" fill="#ffffff" stroke="#000000" stroke-miterlimit="10" transform="rotate(90,67.61,60.78)" pointer-events="all"/><ellipse cx="67.61" cy="61.88" rx="7.824787499999999" ry="4.3869428571428575" fill="none" stroke="#000000" transform="rotate(90,67.61,60.78)" pointer-events="all"/><rect x="66.83" y="54.42" width="2.09" height="7.02" rx="1.04" ry="1.04" fill="#ffffff" stroke="#000000" transform="rotate(90,67.61,60.78)" pointer-events="all"/><rect x="66.83" y="54.42" width="2.09" height="4.83" rx="1.04" ry="1.04" fill="none" stroke="#000000" transform="rotate(90,67.61,60.78)" pointer-events="all"/><rect x="76.69" y="103.94" width="5.9" height="28" fill="#ffffff" stroke="none" pointer-events="all"/><rect x="10.19" y="-0.01" width="106.63" height="10.24" fill="#fff2cc" stroke="#d6b656" pointer-events="all"/></g></svg>